<svg xmlns="http://www.w3.org/2000/svg" xmlns:xlink="http://www.w3.org/1999/xlink" width="2000" zoomAndPan="magnify" viewBox="0 0 1500 1499.999933" height="2000" preserveAspectRatio="xMidYMid meet" version="1.0"><defs><clipPath id="79e09d9ff2"><path d="M 299.59375 299.59375 L 1199.59375 299.59375 L 1199.59375 1199.59375 L 299.59375 1199.59375 Z M 299.59375 299.59375 " clip-rule="nonzero"/></clipPath><clipPath id="227156a4f3"><path d="M 1199.59375 374.59375 L 1199.59375 1124.59375 C 1199.59375 1144.484375 1191.691406 1163.5625 1177.625 1177.625 C 1163.5625 1191.691406 1144.484375 1199.59375 1124.59375 1199.59375 L 374.59375 1199.59375 C 354.703125 1199.59375 335.625 1191.691406 321.5625 1177.625 C 307.496094 1163.5625 299.59375 1144.484375 299.59375 1124.59375 L 299.59375 374.59375 C 299.59375 354.703125 307.496094 335.625 321.5625 321.5625 C 335.625 307.496094 354.703125 299.59375 374.59375 299.59375 L 1124.59375 299.59375 C 1144.484375 299.59375 1163.5625 307.496094 1177.625 321.5625 C 1191.691406 335.625 1199.59375 354.703125 1199.59375 374.59375 Z M 1199.59375 374.59375 " clip-rule="nonzero"/></clipPath><clipPath id="e2c697ff5b"><path d="M 0.59375 0.59375 L 900.59375 0.59375 L 900.59375 900.59375 L 0.59375 900.59375 Z M 0.59375 0.59375 " clip-rule="nonzero"/></clipPath><clipPath id="4619b62d41"><path d="M 900.59375 75.59375 L 900.59375 825.59375 C 900.59375 845.484375 892.691406 864.5625 878.625 878.625 C 864.5625 892.691406 845.484375 900.59375 825.59375 900.59375 L 75.59375 900.59375 C 55.703125 900.59375 36.625 892.691406 22.5625 878.625 C 8.496094 864.5625 0.59375 845.484375 0.59375 825.59375 L 0.59375 75.59375 C 0.59375 55.703125 8.496094 36.625 22.5625 22.5625 C 36.625 8.496094 55.703125 0.59375 75.59375 0.59375 L 825.59375 0.59375 C 845.484375 0.59375 864.5625 8.496094 878.625 22.5625 C 892.691406 36.625 900.59375 55.703125 900.59375 75.59375 Z M 900.59375 75.59375 " clip-rule="nonzero"/></clipPath><clipPath id="79d27a9276"><rect x="0" width="901" y="0" height="901"/></clipPath><clipPath id="7149ad8733"><path d="M 651.410156 447.453125 L 1066 447.453125 L 1066 1052.140625 L 651.410156 1052.140625 Z M 651.410156 447.453125 " clip-rule="nonzero"/></clipPath><clipPath id="45eb20b046"><path d="M 672.617188 707.453125 L 1009.078125 454.648438 C 1019.746094 446.636719 1034.027344 445.339844 1045.964844 451.300781 C 1057.898438 457.261719 1065.441406 469.457031 1065.441406 482.800781 L 1065.441406 1016.796875 C 1065.441406 1030.140625 1057.898438 1042.335938 1045.964844 1048.300781 C 1034.027344 1054.261719 1019.746094 1052.964844 1009.078125 1044.949219 L 672.617188 792.148438 C 659.296875 782.144531 651.464844 766.457031 651.464844 749.800781 C 651.464844 733.144531 659.296875 717.457031 672.617188 707.453125 Z M 672.617188 707.453125 " clip-rule="nonzero"/></clipPath><clipPath id="f94dd16004"><path d="M 0.410156 0.453125 L 414.601562 0.453125 L 414.601562 605.140625 L 0.410156 605.140625 Z M 0.410156 0.453125 " clip-rule="nonzero"/></clipPath><clipPath id="bbcc8c3379"><path d="M 21.617188 260.453125 L 358.078125 7.648438 C 368.746094 -0.363281 383.027344 -1.660156 394.964844 4.300781 C 406.898438 10.261719 414.441406 22.457031 414.441406 35.800781 L 414.441406 569.796875 C 414.441406 583.140625 406.898438 595.335938 394.964844 601.300781 C 383.027344 607.261719 368.746094 605.964844 358.078125 597.949219 L 21.617188 345.148438 C 8.296875 335.144531 0.464844 319.457031 0.464844 302.800781 C 0.464844 286.144531 8.296875 270.457031 21.617188 260.453125 Z M 21.617188 260.453125 " clip-rule="nonzero"/></clipPath><clipPath id="d177425c73"><rect x="0" width="415" y="0" height="606"/></clipPath><clipPath id="e5815fdf92"><path d="M 434 447.859375 L 848.589844 447.859375 L 848.589844 1052.546875 L 434 1052.546875 Z M 434 447.859375 " clip-rule="nonzero"/></clipPath><clipPath id="ed52cb2822"><path d="M 827.382812 792.546875 L 490.921875 1045.351562 C 480.253906 1053.363281 465.972656 1054.660156 454.035156 1048.699219 C 442.101562 1042.738281 434.558594 1030.542969 434.558594 1017.199219 L 434.558594 483.203125 C 434.558594 469.859375 442.101562 457.664062 454.035156 451.699219 C 465.972656 445.738281 480.253906 447.035156 490.921875 455.050781 L 827.382812 707.851562 C 840.699219 717.855469 848.535156 733.542969 848.535156 750.199219 C 848.535156 766.855469 840.699219 782.542969 827.382812 792.546875 Z M 827.382812 792.546875 " clip-rule="nonzero"/></clipPath><clipPath id="9ba6e3f56d"><path d="M 0.398438 0.859375 L 414.589844 0.859375 L 414.589844 605.546875 L 0.398438 605.546875 Z M 0.398438 0.859375 " clip-rule="nonzero"/></clipPath><clipPath id="c8f1e54993"><path d="M 393.382812 345.546875 L 56.921875 598.351562 C 46.253906 606.363281 31.972656 607.660156 20.035156 601.699219 C 8.101562 595.738281 0.558594 583.542969 0.558594 570.199219 L 0.558594 36.203125 C 0.558594 22.859375 8.101562 10.664062 20.035156 4.699219 C 31.972656 -1.261719 46.253906 0.0351562 56.921875 8.050781 L 393.382812 260.851562 C 406.699219 270.855469 414.535156 286.542969 414.535156 303.199219 C 414.535156 319.855469 406.699219 335.542969 393.382812 345.546875 Z M 393.382812 345.546875 " clip-rule="nonzero"/></clipPath><clipPath id="b480dd0d37"><rect x="0" width="415" y="0" height="606"/></clipPath><clipPath id="73b13a2462"><path d="M 733 615 L 920 615 L 920 763 L 733 763 Z M 733 615 " clip-rule="nonzero"/></clipPath><clipPath id="c69caefe28"><path d="M 727.953125 633.113281 L 745.972656 609.125 L 925.875 744.253906 L 907.859375 768.238281 Z M 727.953125 633.113281 " clip-rule="nonzero"/></clipPath><clipPath id="a9f3f9d6e7"><path d="M 736.964844 621.117188 C 741.9375 614.492188 751.339844 613.15625 757.964844 618.132812 L 913.882812 735.242188 C 920.507812 740.21875 921.84375 749.621094 916.867188 756.246094 C 911.890625 762.871094 902.488281 764.207031 895.863281 759.230469 L 739.949219 642.121094 C 733.324219 637.144531 731.988281 627.742188 736.964844 621.117188 Z M 736.964844 621.117188 " clip-rule="nonzero"/></clipPath><clipPath id="e44cb65984"><path d="M 0 0 L 187 0 L 187 148 L 0 148 Z M 0 0 " clip-rule="nonzero"/></clipPath><clipPath id="4161f29090"><path d="M -5.046875 18.113281 L 12.972656 -5.875 L 192.875 129.253906 L 174.859375 153.238281 Z M -5.046875 18.113281 " clip-rule="nonzero"/></clipPath><clipPath id="cabeeea613"><path d="M 3.964844 6.117188 C 8.9375 -0.507812 18.339844 -1.84375 24.964844 3.132812 L 180.882812 120.242188 C 187.507812 125.21875 188.84375 134.621094 183.867188 141.246094 C 178.890625 147.871094 169.488281 149.207031 162.863281 144.230469 L 6.949219 27.121094 C 0.324219 22.144531 -1.011719 12.742188 3.964844 6.117188 Z M 3.964844 6.117188 " clip-rule="nonzero"/></clipPath><clipPath id="bdb8a814db"><rect x="0" width="187" y="0" height="148"/></clipPath><clipPath id="aae4bd2cf9"><path d="M 570 730 L 757 730 L 757 878 L 570 878 Z M 570 730 " clip-rule="nonzero"/></clipPath><clipPath id="a144077349"><path d="M 564.179688 748.6875 L 582.195312 724.703125 L 762.101562 859.828125 L 744.082031 883.816406 Z M 564.179688 748.6875 " clip-rule="nonzero"/></clipPath><clipPath id="b8b39839f4"><path d="M 573.1875 736.695312 C 578.164062 730.070312 587.566406 728.734375 594.191406 733.710938 L 750.105469 850.820312 C 756.730469 855.796875 758.066406 865.199219 753.089844 871.824219 C 748.117188 878.445312 738.714844 879.785156 732.089844 874.808594 L 576.171875 757.695312 C 569.550781 752.722656 568.210938 743.320312 573.1875 736.695312 Z M 573.1875 736.695312 " clip-rule="nonzero"/></clipPath><clipPath id="44c2b7600a"><path d="M 0 0 L 187 0 L 187 148 L 0 148 Z M 0 0 " clip-rule="nonzero"/></clipPath><clipPath id="6c73bd1f43"><path d="M -5.820312 18.6875 L 12.195312 -5.296875 L 192.101562 129.828125 L 174.082031 153.816406 Z M -5.820312 18.6875 " clip-rule="nonzero"/></clipPath><clipPath id="269c207cfa"><path d="M 3.1875 6.695312 C 8.164062 0.0703125 17.566406 -1.265625 24.191406 3.710938 L 180.105469 120.820312 C 186.730469 125.796875 188.066406 135.199219 183.089844 141.824219 C 178.117188 148.445312 168.714844 149.785156 162.089844 144.808594 L 6.171875 27.695312 C -0.449219 22.722656 -1.789062 13.320312 3.1875 6.695312 Z M 3.1875 6.695312 " clip-rule="nonzero"/></clipPath><clipPath id="a8083e4869"><rect x="0" width="187" y="0" height="148"/></clipPath></defs><rect x="-150" width="1800" fill="#ffffff" y="-149.999993" height="1799.99992" fill-opacity="1"/><rect x="-150" width="1800" fill="#ffffff" y="-149.999993" height="1799.99992" fill-opacity="1"/><g clip-path="url(#79e09d9ff2)"><g clip-path="url(#227156a4f3)"><g transform="matrix(1, 0, 0, 1, 299, 299)"><g clip-path="url(#79d27a9276)"><g clip-path="url(#e2c697ff5b)"><g clip-path="url(#4619b62d41)"><path fill="#2dd4bf" d="M 0.59375 0.59375 L 900.59375 0.59375 L 900.59375 900.59375 L 0.59375 900.59375 Z M 0.59375 0.59375 " fill-opacity="1" fill-rule="nonzero"/></g></g></g></g></g></g><g clip-path="url(#7149ad8733)"><g clip-path="url(#45eb20b046)"><g transform="matrix(1, 0, 0, 1, 651, 447)"><g clip-path="url(#d177425c73)"><g clip-path="url(#f94dd16004)"><g clip-path="url(#bbcc8c3379)"><rect x="-981" width="2160" fill="#080c0c" height="2159.999904" y="-776.999985" fill-opacity="1"/></g></g></g></g></g></g><g clip-path="url(#e5815fdf92)"><g clip-path="url(#ed52cb2822)"><g transform="matrix(1, 0, 0, 1, 434, 447)"><g clip-path="url(#b480dd0d37)"><g clip-path="url(#9ba6e3f56d)"><g clip-path="url(#c8f1e54993)"><rect x="-764" width="2160" fill="#080c0c" height="2159.999904" y="-776.999985" fill-opacity="1"/></g></g></g></g></g></g><g clip-path="url(#73b13a2462)"><g clip-path="url(#c69caefe28)"><g clip-path="url(#a9f3f9d6e7)"><g transform="matrix(1, 0, 0, 1, 733, 615)"><g clip-path="url(#bdb8a814db)"><g clip-path="url(#e44cb65984)"><g clip-path="url(#4161f29090)"><g clip-path="url(#cabeeea613)"><path fill="#2dd4bf" d="M -5.046875 18.113281 L 12.972656 -5.875 L 192.875 129.253906 L 174.859375 153.238281 Z M -5.046875 18.113281 " fill-opacity="1" fill-rule="nonzero"/></g></g></g></g></g></g></g></g><g clip-path="url(#aae4bd2cf9)"><g clip-path="url(#a144077349)"><g clip-path="url(#b8b39839f4)"><g transform="matrix(1, 0, 0, 1, 570, 730)"><g clip-path="url(#a8083e4869)"><g clip-path="url(#44c2b7600a)"><g clip-path="url(#6c73bd1f43)"><g clip-path="url(#269c207cfa)"><path fill="#2dd4bf" d="M -5.820312 18.6875 L 12.195312 -5.296875 L 192.101562 129.828125 L 174.082031 153.816406 Z M -5.820312 18.6875 " fill-opacity="1" fill-rule="nonzero"/></g></g></g></g></g></g></g></g></svg>